<svg width="54" height="38" viewBox="0 0 54 38" fill="none" xmlns="http://www.w3.org/2000/svg">
<path fill-rule="evenodd" clip-rule="evenodd" d="M7.91957 1.32226C8.47728 0.495544 9.40933 0 10.4066 0H21.3749C23.0318 0 24.3749 1.34315 24.3749 3V9.81761C24.3749 10.6194 24.0539 11.3878 23.4836 11.9514L21.0536 14.3529L23.4836 16.7544C24.0539 17.318 24.3749 18.0865 24.3749 18.8883V34.4359C24.3749 37.1693 21.0176 38.4787 19.167 36.467L1.1393 16.8698C-0.114844 15.5064 -0.268825 13.4604 0.767146 11.9247L7.91957 1.32226ZM17.3867 12.3529L20.3749 9.39993V4H10.9382L5.30332 12.3529H17.3867ZM6.09893 16.3529L20.3749 31.8718V19.306L17.3867 16.3529H6.09893ZM32.7082 4V31.8718L49 14.1617L42.1449 4H32.7082ZM28.7082 3C28.7082 1.34315 30.0514 0 31.7082 0H42.6766C43.6738 0 44.6059 0.495544 45.1636 1.32226L52.7578 12.5796C53.5348 13.7313 53.4193 15.2659 52.4787 16.2884L33.9161 36.467C32.0655 38.4787 28.7082 37.1693 28.7082 34.4359V3Z" fill="#1626B4"/>
</svg>
